<?xml version="1.0" encoding="UTF-8"?>
<svg version="1.1" viewBox="0 0 2000 2000" width="1280" height="1280" xmlns="http://www.w3.org/2000/svg">
<path transform="translate(0)" d="m0 0h2e3v2e3h-2e3z" fill="#FDFCFC"/>
<path transform="translate(1090,523)" d="m0 0h57l40 3 43 5 37 6 43 9 38 10 33 11 23 10 5 3-9 81-21 183-1 7-5-2-23-12-30-13-28-10-24-7-30-7-35-6-42-4h-64l-4 1-5 38-5 55-3 51-1 29v102l2 47 4 57 6 59 2 22-11 7-14 10-7 4-6-7-10-2h-10l-3 1-1 29-23 16-9 6h-2v-43l7-2 3-1 1-6-30 1-1 5 10 1 2 2v51l-8 4-14 10-18 12-19 13-12 8-19 13-7 4-2-30v-5l5-2 2-19 1-3 2-1h11l1 2 1 10v12l7-1-1-21-6-53-2-11-1-1h-13l-1 2-5 54-1 7h-1l-1-69 1-40 3-52 5-52 5-39 6-39 8-44 11-50 12-47 14-49 9-27-1-1-5 4-8 11-5 12-8 25-6-1-31-12-19-10-12-8-10-8-10-9-7-7-11-15-9-16-7-19-4-16-2-13v-38l4-24 6-20 10-21 8-12 7-9 9-10 11-11 16-12 18-11 17-9 28-11 23-7 30-7 36-6 28-3z" fill="#084D88"/>
<path transform="translate(1094,840)" d="m0 0h13l67 4 38 3 40 5 27 5 26 6 32 11 21 10 16 10 14 11 13 13 11 16 8 16 7 21 3 18 1 11v13l-2 22-5 24-7 20-8 16-10 16-11 13-7 8h-2v2l-8 7-13 10-15 10-16 9-30 13-28 9-24 6-27 5-30 4-42 3h-38l-2-6-7-53-6-62-3-53-1-28v-62l1-1 53-1 25-2 20-4 10-4 5-6v-8l-6-7-11-5-14-4-29-4-28-3-23-2-1-1v-15l2-31z" fill="#084D88"/>
<path transform="translate(803,857)" d="m0 0 11 7 8 6 18 11 24 13 30 13 19 7 8 3-1 8-9 38-10 47-9 48-8 53-6 51-2 19-12-2-35-10-25-9-1-1z" fill="#084D88"/>
<path transform="translate(813,1262)" d="m0 0h15l2 1 3 17 4 35 2 19 2-7 6-57 1-7 17-1 1 2v88h-9l-1-1v-22l1-25v-19l-1-2-3 24-6 43-4 2h-10l-2-9-5-41-3-16v66h-10l-1-49v-40z" fill="#FFD600"/>
<path transform="translate(1297,1262)" d="m0 0h19l7 3 4 9v35l-4 6-1 1v7l6 24v5h-8l-2-2-6-26-2-4-4-1v32l-1 1h-9v-89z" fill="#FFD600"/>
<path transform="translate(1035,1262)" d="m0 0h10l10 2 6 7v39l-3 5-2 1 1 10 5 20v6h-9l-1-1-4-20-3-12h-4l-1 33h-10v-59l1-29z" fill="#FFD600"/>
<path transform="translate(1093,1262)" d="m0 0h12l2 3 6 50 3 29v8h-9l-1-1-2-20-1-3-5-1-5 1-2 22-3 2h-7l-1-1 1-12 3-23 4-45 2-8z" fill="#FFD600"/>
<path transform="translate(897,1263)" d="m0 0h13l3 5 6 50 2 23v9l-1 1h-7l-1-3v-9l-1-12-13 1-2 22-2 2h-6v-14l5-49 2-23z" fill="#FFD600"/>
<path transform="translate(1193,1262)" d="m0 0h8l2 1v17l-2 17v7h2l2-11 5-17 4-13 2-1h8v7l-6 17-5 14 1 8 5 15 7 24v5h-9l-3-8-7-26-3-3-1 8-1 29h-10v-89z" fill="#FFD600"/>
<path transform="translate(683,1261)" d="m0 0h11l8 4 3 7v21l-3 2-5-1-1-2-1-21-4-2-6 2-1 3v24l2 3 12 3 6 7 2 11v18l-3 8-6 4-5 1h-7l-7-3-3-4-2-11v-15l1-1h8l1 1 1 22 3 2h6l2-1 1-3v-16l-2-10-6-2-8-3-5-5-2-11v-16l2-11z" fill="#FFD600"/>
<path transform="translate(1147,1261)" d="m0 0h11l7 3 4 7 1 5v16l-1 2-8 1-1-2-1-22-2-2-7 1-2 4v66l2 4h7l2-1 1-3v-20l1-1h8l1 1v22l-5 8-8 3h-10l-5-3-3-4-2-9v-62l1-7 5-5z" fill="#FFD600"/>
<path transform="translate(1248,1262)" d="m0 0h26l1 2v6l-1 1h-17v31h16l1 1v7l-1 1h-16l1 32 16 1 1 1v6l-1 1h-26l-1-2v-87z" fill="#FFD600"/>
<path transform="translate(618,1312)" d="m0 0h6l-5 6-8 7-6 11-1 4v12l5 14 10 14 5 5 10 9 16 10 18 9 20 7 1 2-16-3-20-7-19-10-13-9-10-9-10-12-6-11-3-11v-7l4-11 9-12 9-6z" fill="#FFD600"/>
<path transform="translate(1379,1312)" d="m0 0 7 1 9 6 8 9 5 11 1 10-3 12-5 10-11 14-10 9-13 8-19 10-18 7-8 2h-8l2-2 19-7 21-10 13-9 11-10 9-11 6-12 3-12-1-8-3-9-6-8-4-4v-2l-4-2z" fill="#FFD600"/>
<path transform="translate(727,1262)" d="m0 0h31l1 1v7l-9 1-1 1-1 80h-10l-1-80-1-1-9-1-1-7z" fill="#FFD600"/>
<path transform="translate(633,1315)" d="m0 0h4l-1 5-7 6-5 8-3 9v7l4 12 6 10 14 15 13 9 15 8 20 8 7 3v1h-8l-19-6-19-9-16-11-11-10-10-13-4-8-2-7v-12l3-8 6-8 11-8z" fill="#FFD600"/>
<path transform="translate(1364,1315)" d="m0 0 6 1 10 7 6 7 4 9v15l-4 11-4 7h-2l-2 4-6 7-11 9-13 9-18 8-13 4-9 1 1-2 19-7 16-9 11-8 11-10 8-10 4-8 2-8v-11l-3-8-6-9-7-6z" fill="#FFD600"/>
<path transform="translate(1e3 1262)" d="m0 0h6l2 1v6l-4 2-6 1v80h-10v-80l-1-1-10-2v-5l1-1z" fill="#FFD600"/>
<path transform="translate(780,1262)" d="m0 0 10 1v89h-10z" fill="#FFD600"/>
<path transform="translate(1308,1270)" d="m0 0h7l2 1 2 18v15l-2 4-4 2h-6l-1-1v-37z" fill="#FDFDFD"/>
<path transform="translate(904,1271)" d="m0 0 3 3 3 36v9l-10 1-1-1 1-15 2-29z" fill="#084D88"/>
<path transform="translate(1050,1280)" d="m0 0h2l1 3v20l-2 5-7 3h-3l-1-2v-24z" fill="#FDFDFD"/>
<path transform="translate(1097,1270)" d="m0 0 2 1 2 9 2 28v11l-2 1-7-1v-15l2-33z" fill="#FDFDFD"/>
<path transform="translate(712,1416)" d="m0 0h10l2 1-1 13-2 1-10-4-1-3z" fill="#FFD600"/>
<path transform="translate(1043,1269)" d="m0 0 6 1 3 3v7l-10 5h-2l-1-5v-7z" fill="#084D88"/>
<path transform="translate(1282,1416)" d="m0 0h8l1 7-1 5-11 2-2-12z" fill="#FFD600"/>
</svg>
